<?xml version="1.0" encoding="UTF-8"?>
<svg id="Layer_2" data-name="Layer 2" xmlns="http://www.w3.org/2000/svg" viewBox="0 0 364.5 369.47">
  <defs>
    <style>
      .cls-1 {
        fill: #006fee;
      }

      .cls-2 {
        fill: #ffc79f;
      }
    </style>
  </defs>
  <g id="Layer_1-2" data-name="Layer 1">
    <g>
      <path class="cls-1" d="M87.72,.64H41.69C18.66,.64,0,19.31,0,42.33v43.03c0,11.2,9.08,20.28,20.28,20.28H87.72c11.2,0,20.28-9.08,20.28-20.28V20.92c0-11.2-9.08-20.28-20.28-20.28Zm3.28,62.94c0,14.39-11.67,26.06-26.06,26.06h-19.88c-14.39,0-26.06-11.67-26.06-26.06v-17.88c0-14.39,11.67-26.06,26.06-26.06h19.88c14.39,0,26.06,11.67,26.06,26.06v17.88Z"/>
      <rect class="cls-1" x="35" y="34.64" width="38" height="40" rx="14.75" ry="14.75"/>
    </g>
    <g>
      <path class="cls-1" d="M256.5,20.92V85.36c0,11.2,9.08,20.28,20.28,20.28h67.44c11.2,0,20.28-9.08,20.28-20.28V42.33c0-23.02-18.66-41.69-41.69-41.69h-46.03c-11.2,0-20.28,9.08-20.28,20.28Zm17,24.78c0-14.39,11.67-26.06,26.06-26.06h19.88c14.39,0,26.06,11.67,26.06,26.06v17.88c0,14.39-11.67,26.06-26.06,26.06h-19.88c-14.39,0-26.06-11.67-26.06-26.06v-17.88Z"/>
      <rect class="cls-1" x="291.5" y="34.64" width="38" height="40" rx="14.75" ry="14.75" transform="translate(621 109.29) rotate(-180)"/>
    </g>
    <g>
      <path class="cls-1" d="M108,349.19v-64.44c0-11.2-9.08-20.28-20.28-20.28H20.28c-11.2,0-20.28,9.08-20.28,20.28v43.03c0,23.02,18.66,41.69,41.69,41.69h46.03c11.2,0,20.28-9.08,20.28-20.28Zm-17-24.78c0,14.39-11.67,26.06-26.06,26.06h-19.88c-14.39,0-26.06-11.67-26.06-26.06v-17.88c0-14.39,11.67-26.06,26.06-26.06h19.88c14.39,0,26.06,11.67,26.06,26.06v17.88Z"/>
      <rect class="cls-1" x="35" y="295.47" width="38" height="40" rx="14.75" ry="14.75"/>
    </g>
    <g>
      <path class="cls-1" d="M276.78,369.47h46.03c23.02,0,41.69-18.66,41.69-41.69v-43.03c0-11.2-9.08-20.28-20.28-20.28h-67.44c-11.2,0-20.28,9.08-20.28,20.28v64.44c0,11.2,9.08,20.28,20.28,20.28Zm-3.28-62.94c0-14.39,11.67-26.06,26.06-26.06h19.88c14.39,0,26.06,11.67,26.06,26.06v17.88c0,14.39-11.67,26.06-26.06,26.06h-19.88c-14.39,0-26.06-11.67-26.06-26.06v-17.88Z"/>
      <rect class="cls-1" x="291.5" y="295.47" width="38" height="40" rx="14.75" ry="14.75" transform="translate(621 630.94) rotate(180)"/>
    </g>
    <path class="cls-1" d="M337.16,125.42v25.95c0,.56,.46,1.02,1.02,1.02h18c3.87,0,6.45-3.96,4.94-7.53-4.08-9.62-11.96-17.24-21.77-20.97-1.06-.4-2.19,.39-2.19,1.52h0Z"/>
    <rect class="cls-2" x="64.16" y="178.39" width="2" height="0"/>
    <g>
      <path class="cls-1" d="M357.83,171h-34.49c-2.86,0-5.18-2.32-5.18-5.18v-40.79c0-.18,0-.36,.03-.54,.2-1.84-1.11-3.49-2.97-3.49h-47.42c-13.06,0-23.65-10.59-23.65-23.65V38.62c0-21.33-17.29-38.62-38.62-38.62h-43.77c-21.33,0-38.62,17.29-38.62,38.62v58.74c0,13.06-10.59,23.65-23.65,23.65H38.63c-18.36,0-33.7,12.86-37.54,30.07,.22-.04,.45-.07,.68-.07H15.55s.06,0,.09,0c1.37,.03,2.52-1,2.52-2.37v-11.88c0-2.07,1.68-3.76,3.76-3.76h12.49c2.07,0,3.76,1.68,3.76,3.76v15.63c0,.39-.08,.76-.19,1.11,.53-.31,1.14-.5,1.8-.5h11.78c.66,0,1.27,.19,1.8,.5-.11-.35-.19-.72-.19-1.11v-12.63c0-2.07,1.68-3.76,3.76-3.76h12.49c2.07,0,3.76,1.68,3.76,3.76v12.49c0,2.07-1.68,3.76-3.76,3.76h-12.63c-.66,0-1.27-.19-1.8-.5,.11,.35,.19,.72,.19,1.11v11.63c0,2.07-1.68,3.76-3.76,3.76h-11.49c-2.07,0-3.76-1.68-3.76-3.76v-11.63c0-.39,.08-.76,.19-1.11-.53,.31-1.14,.5-1.8,.5h-12.78c-.15,0-.29,0-.43-.03-1.17-.14-2.18,.87-2.18,2.05v10.22c0,2.07-1.68,3.76-3.76,3.76H1.76c-.88,0-1.59,.71-1.59,1.59v23.17c0,1.23,1.01,2.24,2.24,2.24h.02s12.93,0,12.93,0c1.55,0,2.8-1.25,2.8-2.8v-4.78c0-3.54,2.87-6.41,6.41-6.41h7.18c3.54,0,6.41,2.87,6.41,6.41v21.18c0,3.54-2.87,6.41-6.41,6.41H15.67c-5.75,0-8.84,6.92-4.87,11.08,5.29,5.55,12.23,9.52,20.03,11.12,2.75,.57,5.33-1.53,5.33-4.34v-14.08c0-2.09,1.69-3.78,3.78-3.78h11.44c2.09,0,3.78,1.69,3.78,3.78v13.9c0,2.94,2.38,5.32,5.32,5.32h39.03c13.06,0,23.65,10.59,23.65,23.65v64.74c0,21.33,17.29,38.62,38.62,38.62h43.77c21.33,0,38.62-17.29,38.62-38.62v-64.88c0-1.07,.08-2.12,.22-3.15-.13-.39-.22-.79-.22-1.22v-37.1c0-2.22,1.8-4.02,4.02-4.02h11.96c2.22,0,4.02,1.8,4.02,4.02v14.52c0,1.91,1.56,3.46,3.46,3.46h27.14c1.32,0,2.4-1.08,2.4-2.4v-17.64c0-1.08-.88-1.96-1.96-1.96h-.01s-17.15,0-17.15,0c-2.14,0-3.87-1.73-3.87-3.87v-27.25c0-2.14,1.73-3.87,3.87-3.87h16.25c2.14,0,3.87,1.73,3.87,3.87v8.96c0,2.58,2.27,4.55,4.83,4.22,.28-.04,.56-.05,.85-.05h28.15c2.86,0,5.17,2.32,5.17,5.17v8.5c0,2.94-2.38,5.33-5.33,5.33h-12.13c-1.96,0-3.55,1.59-3.55,3.55v15.05c0,1.32,1.08,2.4,2.4,2.4h6.98c21.33,0,38.62-17.29,38.62-38.62v-26.05c0-3.5-2.83-6.33-6.33-6.33ZM90.16,215.7c0,2.38-1.89,4.3-4.22,4.3h-27.56c-2.33,0-4.22-1.93-4.22-4.3v-43.4c0-2.38,1.89-4.3,4.22-4.3h11.56c2.33,0,4.22,1.93,4.22,4.3v25.04c0,2.38,1.89,4.3,4.22,4.3h7.56c2.33,0,4.22,1.93,4.22,4.3v9.75Zm37,16.52c0,2.09-1.69,3.78-3.78,3.78h-11.44c-2.09,0-3.78-1.69-3.78-3.78v-28.59s0-.03,0-.04c-.49,.25-1.04,.41-1.64,.41h-11.59c-2.09,0-3.78-1.69-3.78-3.78v-12.44c0-2.09,1.69-3.78,3.78-3.78h11.44c2.09,0,3.78,1.69,3.78,3.78v12.59s0,.03,0,.04c.49-.25,1.04-.41,1.64-.41h11.59c2.09,0,3.78,1.69,3.78,3.78v28.44Zm0-80.93c0,2.6-2.11,4.71-4.71,4.71h-26.58c-2.6,0-4.71-2.11-4.71-4.71v-17.58c0-2.6,2.11-4.71,4.71-4.71h9.58c2.6,0,4.71,2.11,4.71,4.71v1.58c0,2.6,2.11,4.71,4.71,4.71h7.58c2.6,0,4.71,2.11,4.71,4.71v6.58Zm113-22.11c0-2.31,1.87-4.18,4.18-4.18h10.64c2.31,0,4.18,1.87,4.18,4.18v7.64c0,2.31-1.87,4.18-4.18,4.18h-10.64c-2.31,0-4.18-1.87-4.18-4.18v-7.64Zm-45.64,20.75c-8.62,14,9.62,144,6.75,170.08-2.35,21.29-14.1,24.34-18.34,24.75v.05s-.28,.02-.77,0c-.49,.02-.77,0-.77,0v-.05c-4.24-.4-16-3.46-18.34-24.75-2.88-26.08,15.38-156.08,6.75-170.08s-31.62-11.5-30.62-55.75c.98-43.19,21.48-68.5,42.22-69.93v-.07c.26,0,.51,.03,.77,.04,.26-.01,.51-.03,.77-.04v.07c20.74,1.42,41.24,26.74,42.22,69.93,1,44.25-22,41.75-30.62,55.75Zm81.64,33.69c0,1.86-1.51,3.37-3.37,3.37h-45.25c-1.86,0-3.37-1.51-3.37-3.37v-11.25c0-1.86,1.51-3.37,3.37-3.37h10.25c1.86,0,3.37-1.51,3.37-3.37v-9.25c0-1.86,1.51-3.37,3.37-3.37h11.25c1.86,0,3.37,1.51,3.37,3.37v9.25c0,1.86,1.51,3.37,3.37,3.37h10.25c1.86,0,3.37,1.51,3.37,3.37v11.25Zm21-31.05c0,1.34-1.09,2.43-2.43,2.43h-15.14c-1.34,0-2.43-1.09-2.43-2.43v-15.14c0-1.34,1.09-2.43,2.43-2.43h15.14c1.34,0,2.43,1.09,2.43,2.43v15.14Zm23,30.25c0,2.31-1.87,4.18-4.18,4.18h-12.64c-2.31,0-4.18-1.87-4.18-4.18v-10.64c0-2.31,1.87-4.18,4.18-4.18h12.64c2.31,0,4.18,1.87,4.18,4.18v10.64Z"/>
      <path class="cls-1" d="M170.66,54.39c-4.14,0-7.5,3.36-7.5,7.5v49c0,4.14,3.36,7.5,7.5,7.5s7.5-3.36,7.5-7.5V61.89c0-4.14-3.36-7.5-7.5-7.5Z"/>
      <path class="cls-1" d="M194.66,54.39c-4.14,0-7.5,3.36-7.5,7.5v49c0,4.14,3.36,7.5,7.5,7.5s7.5-3.36,7.5-7.5V61.89c0-4.14-3.36-7.5-7.5-7.5Z"/>
    </g>
  </g>
</svg>